# xmcd CD database file
# Copyright (C) 1993-1998 Ti Kan
#
# Track frame offsets:
#	150
#	10650
#	25025
#	36660
#	49610
#	62785
#	75892
#	90620
#	105435
#	119277
#	132687
#	147142
#	159580
#	171205
#	182975
#	197892
#	213042
#	227730
#
# Disc length: 3228 seconds
#
# Revision: 0
# Processed by: cddbd v1.4b41PL1 Copyright (c) Steve Scherf et al.
# Submitted via: CDmax 1.5
#
DISCID=ed0c9a12
DTITLE=Various Artist - Wild About My Lovin' - Beale Street Blues 1928-1930
DYEAR=1900
DGENRE=
TTITLE0=The Memphis Jug Band: Overseas Stomp
TTITLE1=The Memphis Jug Band: Stealin' Stealin'
TTITLE2=The Memphis Jug Band: K. C. Moan
TTITLE3=The Memphis Jug Band: On The Road Again
TTITLE4=The Memphis Jug Band: Jug Band Waltz
TTITLE5=Jim Jackson: My Monday Woman Blues
TTITLE6=Jim Jackson: I'm Wild About My Lovin'
TTITLE7=Jim Jackson: When I Woke Up This Morning She Was Gone
TTITLE8=Jim Jackson: I heard The Voice Of A Pork Chop
TTITLE9=Cannon's Jug Stompers: Walk Right In
TTITLE10=Cannon's Jug Stompers: Viola Lee Blues
TTITLE11=Cannon's Jug Stompers: Bring It With You When You Come
TTITLE12=Cannon's Jug Stompers: Going To Germany
TTITLE13=Cannon's Jug Stompers: Prison Wall Blues
TTITLE14=Frank Stokes: Downtown Blues
TTITLE15=Frank Stokes: 'Taint Nobody's Business
TTITLE16=Frank Stokes: 'Taint Nobody's Business (Part II)
TTITLE17=Frank Stokes: Take Me Back
EXTD=
EXTT0=
EXTT1=
EXTT2=
EXTT3=
EXTT4=
EXTT5=
EXTT6=
EXTT7=
EXTT8=
EXTT9=
EXTT10=
EXTT11=
EXTT12=
EXTT13=
EXTT14=
EXTT15=
EXTT16=
EXTT17=
PLAYORDER=
